<svg width="44" height="44" viewBox="0 0 44 44" fill="none" xmlns="http://www.w3.org/2000/svg">
<g clip-path="url(#clip0_193_17)">
<path d="M21.9959 44C9.86613 44 0 34.1339 0 21.9959C0 9.85801 9.86613 0 21.9959 0C34.1258 0 43.9919 9.86613 43.9919 21.9959C43.9919 34.1258 34.1258 43.9919 21.9959 43.9919V44ZM21.9959 2.09331C11.0183 2.09331 2.09331 11.0183 2.09331 21.9959C2.09331 32.9736 11.0264 41.9067 22.0041 41.9067C32.9817 41.9067 41.9148 32.9736 41.9148 21.9959C41.9148 11.0183 32.9817 2.09331 21.9959 2.09331ZM29.4118 13.0791C28.5112 13.0791 27.7809 13.8093 27.7809 14.7099C27.7809 15.6105 28.5112 16.3408 29.4118 16.3408C30.3124 16.3408 31.0426 15.6105 31.0426 14.7099C31.0426 13.8093 30.3124 13.0791 29.4118 13.0791ZM22.1744 15.1643C18.4016 15.1643 15.3347 18.2312 15.3347 22.0041C15.3347 25.7769 18.4016 28.8438 22.1744 28.8438C25.9473 28.8438 29.0142 25.7769 29.0142 22.0041C29.0142 18.2312 25.9473 15.1643 22.1744 15.1643ZM22.1744 26.3854C19.7566 26.3854 17.7931 24.4219 17.7931 22.0041C17.7931 19.5862 19.7566 17.6227 22.1744 17.6227C24.5923 17.6227 26.5558 19.5862 26.5558 22.0041C26.5558 24.4219 24.5923 26.3854 22.1744 26.3854ZM35.9757 16.3245C35.9757 11.716 32.2434 7.98377 27.6349 7.98377H16.6247C12.0162 7.98377 8.28398 11.716 8.28398 16.3245V27.3347C8.28398 31.9432 12.0162 35.6755 16.6247 35.6755H27.6349C32.2434 35.6755 35.9757 31.9432 35.9757 27.3347V16.3245ZM33.3631 27.3347C33.3631 30.499 30.7992 33.0629 27.6349 33.0629H16.6247C13.4604 33.0629 10.8966 30.499 10.8966 27.3347V16.3245C10.8966 13.1602 13.4604 10.5963 16.6247 10.5963H27.6349C30.7992 10.5963 33.3631 13.1602 33.3631 16.3245V27.3347Z" fill="#333033"/>
</g>
<defs>
<clipPath id="clip0_193_17">
<rect width="44" height="44" fill="white"/>
</clipPath>
</defs>
</svg>
