<svg width="44" height="44" viewBox="0 0 44 44" fill="none" xmlns="http://www.w3.org/2000/svg">
<g clip-path="url(#clip0_193_22)">
<path d="M21.996 44C9.86554 44 0 34.1264 0 21.996C0 9.86554 9.86554 0 21.996 0C34.1264 0 43.9919 9.86554 43.9919 21.996C43.9919 34.1264 34.1264 43.9919 21.996 43.9919V44ZM21.996 2.36966C11.1713 2.3616 2.3616 11.1713 2.3616 21.996C2.3616 32.8207 11.1713 41.6303 21.996 41.6303C32.8207 41.6303 41.6303 32.8207 41.6303 21.996C41.6303 11.1713 32.8287 2.3616 21.996 2.3616V2.36966Z" fill="#333033"/>
<path d="M34.6422 13.9682C33.8281 14.3389 32.9334 14.5566 32.0549 14.7097C32.474 14.6372 33.0866 13.8876 33.3364 13.5813C33.7152 13.1138 34.0215 12.5818 34.1988 12.0096C34.223 11.9612 34.2391 11.9048 34.1988 11.8725C34.1424 11.8484 34.1102 11.8645 34.0618 11.8806C33.0785 12.4045 32.0629 12.7914 30.9829 13.0574C30.8942 13.0816 30.8297 13.0574 30.7733 13.001C30.6847 12.8962 30.596 12.8075 30.5073 12.7269C30.056 12.34 29.5643 12.0337 29.0162 11.8161C28.2989 11.526 27.509 11.397 26.7271 11.4454C25.9695 11.4937 25.228 11.7113 24.559 12.0579C23.89 12.4126 23.2855 12.8962 22.8099 13.4846C22.3183 14.0971 21.9556 14.8145 21.7621 15.5802C21.5848 16.3136 21.5929 17.0471 21.7057 17.7886C21.7218 17.9095 21.7057 17.9257 21.6009 17.9095C17.3775 17.2809 13.8713 15.7656 11.0261 12.5254C10.9052 12.3884 10.8327 12.3884 10.7359 12.5335C9.49469 14.3953 10.0992 17.3937 11.6467 18.8687C11.8563 19.0621 12.0659 19.2636 12.2996 19.441C12.219 19.4571 11.1792 19.3442 10.2604 18.8687C10.1395 18.7881 10.075 18.8365 10.067 18.9735C10.0589 19.175 10.067 19.3604 10.0992 19.578C10.341 21.4721 11.6467 23.2211 13.4441 23.8982C13.6537 23.9868 13.8955 24.0674 14.1212 24.1077C13.7101 24.1964 13.291 24.2609 12.1223 24.1722C11.9772 24.1481 11.9208 24.2206 11.9772 24.3576C12.8557 26.7595 14.7579 27.4688 16.1846 27.8799C16.378 27.9121 16.5634 27.9121 16.7568 27.9605C16.7488 27.9766 16.7326 27.9766 16.7246 27.9927C16.249 28.7101 14.6128 29.2501 13.8552 29.5161C12.4689 29.9997 10.9616 30.2173 9.49469 30.0722C9.26095 30.04 9.21259 30.04 9.14811 30.0722C9.08363 30.1125 9.14005 30.1689 9.21259 30.2254C9.51081 30.4188 9.80903 30.5961 10.1234 30.7654C11.0503 31.257 12.0256 31.652 13.0411 31.9341C18.2802 33.3768 24.1802 32.321 28.1135 28.4118C31.2005 25.3409 32.2805 21.1094 32.2805 16.8779C32.2805 16.7086 32.474 16.6199 32.5949 16.5313C33.4009 15.9268 34.0376 15.2014 34.6341 14.3953C34.7711 14.218 34.7631 14.0568 34.7631 13.9843V13.9601C34.7631 13.8956 34.7711 13.9117 34.6663 13.9601L34.6422 13.9682Z" fill="#333033"/>
<path fill-rule="evenodd" clip-rule="evenodd" d="M17.5708 32.4902C17.5708 32.4499 18.0222 32.4902 17.5708 32.4902C17.5708 32.466 17.6272 32.4902 17.5708 32.4902Z" fill="#333033"/>
<path fill-rule="evenodd" clip-rule="evenodd" d="M26.6465 11.4695C26.6465 11.4695 26.582 11.4937 26.5417 11.4695H26.6465Z" fill="#333033"/>
</g>
<defs>
<clipPath id="clip0_193_22">
<rect width="44" height="44" fill="white"/>
</clipPath>
</defs>
</svg>
