<svg width="464" height="66" viewBox="0 0 464 66" fill="none" xmlns="http://www.w3.org/2000/svg">
<path d="M218.081 63.1529L218.158 65.6517L218.081 63.1529ZM460.786 38.8792C462.157 39.0465 463.403 38.071 463.57 36.7004C463.738 35.3299 462.762 34.0833 461.392 33.9161L460.786 38.8792ZM0.94597 5.90162C62.4751 15.0685 147.082 29.0456 201.04 41.1916C214.528 44.2277 226.057 47.1398 234.813 49.8234C239.193 51.1657 242.84 52.439 245.674 53.6281C248.569 54.8427 250.403 55.8841 251.333 56.6939C251.803 57.1036 251.818 57.2632 251.778 57.1406C251.686 56.8537 251.77 56.5123 251.885 56.3536C251.906 56.3232 251.753 56.5311 251.077 56.8585C250.437 57.1683 249.503 57.5018 248.21 57.8348C242.971 59.1836 233.252 60.1826 218.004 60.6541L218.158 65.6517C233.402 65.1803 243.624 64.1787 249.457 62.6768C250.931 62.2971 252.211 61.8648 253.256 61.359C254.264 60.8706 255.269 60.2129 255.946 59.2703C256.715 58.1993 256.953 56.8991 256.538 55.6099C256.176 54.485 255.393 53.5989 254.616 52.9228C253.051 51.5609 250.593 50.27 247.609 49.0175C244.563 47.7395 240.743 46.411 236.278 45.0428C227.346 42.3053 215.677 39.3612 202.138 36.3136C147.99 24.1247 63.2295 10.1257 1.68276 0.9562L0.94597 5.90162ZM218.004 60.6541C198.99 61.2421 185.348 60.8609 176.409 59.8207C171.921 59.2985 168.751 58.6243 166.716 57.885C165.696 57.5143 165.085 57.1706 164.754 56.9119C164.425 56.6549 164.552 56.6279 164.601 56.892C164.657 57.1898 164.513 57.2926 164.659 57.0787C164.823 56.8382 165.202 56.4364 165.95 55.9066C167.441 54.8516 169.895 53.637 173.373 52.3306C180.284 49.734 190.673 46.9799 203.992 44.3696C257.248 33.9321 355.851 26.0756 460.786 38.8792L461.392 33.9161C355.924 21.0475 256.792 28.9262 203.03 39.463C189.594 42.0962 178.898 44.9132 171.614 47.65C167.993 49.0103 165.072 50.403 163.062 51.8252C162.06 52.534 161.157 53.3384 160.527 54.2625C159.879 55.2134 159.43 56.4396 159.686 57.8106C159.936 59.148 160.77 60.1441 161.674 60.8511C162.577 61.5565 163.724 62.1178 165.008 62.5843C167.582 63.5195 171.199 64.2483 175.831 64.7872C185.131 65.8693 199.056 66.2424 218.158 65.6517L218.004 60.6541Z" fill="#A4161A"/>
</svg>
