<svg width="60" height="58" viewBox="0 0 60 58" fill="none" xmlns="http://www.w3.org/2000/svg">
<path d="M58.7012 14.9333L58.7012 14.9335L42.0467 56.8715C42.0466 56.8716 42.0466 56.8716 42.0466 56.8717C41.9807 57.0363 41.7518 57.0525 41.667 56.8878L38.3538 50.4493C38.2263 50.2017 38.2145 49.9224 38.3125 49.68L38.3136 49.6772L49.3002 22.0161L49.7925 20.7768L48.6067 21.387L4.10225 44.289C4.00242 44.3404 3.87097 44.3009 3.81611 44.1943L1.36187 39.4251C1.30701 39.3185 1.35128 39.1885 1.45111 39.1372L45.9556 16.2351L47.1413 15.6249L45.8467 15.3051L16.9573 8.16806C16.9566 8.16787 16.9558 8.16768 16.9551 8.16748C16.6887 8.09811 16.469 7.92159 16.3474 7.68532L13.0346 1.24765C13.0157 1.21087 13.0079 1.16964 13.0118 1.12904C13.0156 1.08849 13.031 1.05044 13.0555 1.01925C13.0801 0.988071 13.1129 0.964815 13.1502 0.952059C13.1874 0.9393 13.2279 0.93746 13.2669 0.947143L13.2675 0.947294L57.0703 11.7643L57.0705 11.7643C57.3971 11.8449 57.7033 11.9949 57.9681 12.2044C58.2329 12.414 58.4501 12.6781 58.6049 12.9788C58.7597 13.2796 58.8483 13.6098 58.8649 13.9471C58.8815 14.2844 58.8256 14.6207 58.7012 14.9333Z" stroke="white"/>
</svg>
