<svg width="44" height="44" viewBox="0 0 44 44" fill="none" xmlns="http://www.w3.org/2000/svg">
<g clip-path="url(#clip0_193_19)">
<path d="M21.996 44C9.86554 44 0 34.1264 0 21.996C0 9.86554 9.86554 0 21.996 0C34.1264 0 43.9919 9.86554 43.9919 21.996C43.9919 34.1264 34.1264 43.9919 21.996 43.9919V44ZM21.996 2.36966C11.1713 2.3616 2.3616 11.1713 2.3616 21.996C2.3616 32.8207 11.1713 41.6303 21.996 41.6303C32.8207 41.6303 41.6303 32.8207 41.6303 21.996C41.6303 11.1713 32.8287 2.3616 21.996 2.3616V2.36966Z" fill="#333033"/>
<path d="M35.1661 18.6592C35.1661 15.5399 32.6353 13.009 29.516 13.009H14.8628C11.7435 13.009 9.21265 15.5399 9.21265 18.6592V25.5263C9.21265 28.6456 11.7435 31.1765 14.8628 31.1765H29.516C32.6353 31.1765 35.1661 28.6456 35.1661 25.5263V18.6592ZM25.9212 22.4393L20.0776 25.6472C19.8197 25.7843 19.594 25.5989 19.594 25.3087V18.7317C19.594 18.4415 19.8278 18.2561 20.0857 18.4012L25.9696 21.7784C26.2275 21.9235 26.1872 22.3023 25.9212 22.4474V22.4393Z" fill="#333033"/>
</g>
<defs>
<clipPath id="clip0_193_19">
<rect width="44" height="44" fill="white"/>
</clipPath>
</defs>
</svg>
